<?xml version="1.0" encoding="UTF-8" standalone="no"?>
<!-- Created with Inkscape (http://www.inkscape.org/) -->

<svg
   width="62.543999mm"
   height="67.115997mm"
   viewBox="0 0 62.543999 67.115997"
   version="1.1"
   id="svg1"
   xml:space="preserve"
   inkscape:version="1.4.3 (0d15f75, 2025-12-25)"
   sodipodi:docname="logo-lux-drive.svg"
   xmlns:inkscape="http://www.inkscape.org/namespaces/inkscape"
   xmlns:sodipodi="http://sodipodi.sourceforge.net/DTD/sodipodi-0.dtd"
   xmlns="http://www.w3.org/2000/svg"
   xmlns:svg="http://www.w3.org/2000/svg"><sodipodi:namedview
     id="namedview1"
     pagecolor="#ffffff"
     bordercolor="#000000"
     borderopacity="0.25"
     inkscape:showpageshadow="2"
     inkscape:pageopacity="0.0"
     inkscape:pagecheckerboard="0"
     inkscape:deskcolor="#d1d1d1"
     inkscape:document-units="mm"
     inkscape:zoom="2.736408"
     inkscape:cx="135.76192"
     inkscape:cy="108.53645"
     inkscape:window-width="1920"
     inkscape:window-height="1172"
     inkscape:window-x="-8"
     inkscape:window-y="-8"
     inkscape:window-maximized="1"
     inkscape:current-layer="g2" /><defs
     id="defs1" /><g
     inkscape:label="Capa 1"
     inkscape:groupmode="layer"
     id="layer1"
     transform="translate(-78.659292,-47.589684)"><g
       id="g2"><path
         style="fill:#000000;stroke-width:0.869939"
         d="m 96.998742,112.54572 c 1.448839,-0.17352 4.165408,-0.43323 6.036818,-0.57714 1.87143,-0.14391 6.21794,-0.32124 9.65893,-0.39406 4.15691,-0.0879 6.84566,-0.25405 8.01251,-0.49492 0.99255,-0.20488 2.55151,-0.77441 3.58527,-1.30979 1.52507,-0.78982 2.16505,-1.31865 3.85018,-3.18147 1.6936,-1.87219 2.1882,-2.60566 3.05266,-4.52691 0.56738,-1.26099 1.23724,-3.161533 1.48858,-4.223425 0.25134,-1.061884 0.51241,-3.017214 0.58015,-4.345161 0.0677,-1.327948 0.0163,-3.287355 -0.11428,-4.354237 -0.1306,-1.066892 -0.49916,-2.850547 -0.81901,-3.963684 -0.31985,-1.113146 -0.99152,-2.835633 -1.4926,-3.827765 -0.55304,-1.094994 -1.55806,-2.524417 -2.55747,-3.637418 -1.038,-1.15598 -2.25482,-2.208779 -3.29281,-2.848968 -0.90553,-0.558489 -2.23912,-1.199143 -2.96354,-1.423668 -1.09893,-0.340613 -2.8445,-0.433616 -10.53701,-0.561417 -9.14511,-0.151936 -9.23056,-0.158001 -10.537,-0.748379 l -1.317125,-0.595202 1.317125,-0.07607 c 0.72442,-0.04187 6.15757,-0.03165 12.07365,0.02271 8.94869,0.08219 11.00996,0.164862 12.26441,0.491857 0.82934,0.216187 2.0536,0.617541 2.72059,0.891896 0.66699,0.274346 1.91474,0.949489 2.77277,1.500306 0.85805,0.550818 2.26422,1.785589 3.12483,2.743926 0.86062,0.958346 2.0651,2.653113 2.67663,3.766149 0.61153,1.113037 1.36421,2.87356 1.67262,3.912266 0.30842,1.038715 0.65904,2.554309 0.77917,3.367998 0.12013,0.813679 0.21917,2.421838 0.22009,3.573677 8.3e-4,1.151839 -0.10343,2.943777 -0.23187,3.982082 -0.12844,1.038313 -0.51418,2.791384 -0.85721,3.89571 -0.34303,1.104327 -1.08395,2.841967 -1.6465,3.861417 -0.56255,1.01945 -1.53509,2.45805 -2.1612,3.19689 -0.62612,0.73884 -1.58293,1.73412 -2.12624,2.21172 -0.54332,0.47761 -1.67933,1.2508 -2.52449,1.71822 -0.84516,0.46741 -2.17875,1.0708 -2.96353,1.34086 -0.78479,0.27005 -2.26397,0.60283 -3.28706,0.73952 -1.11648,0.14915 -7.30386,0.23642 -15.47623,0.21828 -12.498681,-0.0277 -13.399885,-0.0561 -10.981808,-0.34573 z M 83.84945,78.832592 C 83.86563,70.171559 83.82655,60.71312 83.76272,57.813844 83.656396,52.985951 83.607909,52.478317 83.186479,51.78038 82.9334,51.361251 82.295172,50.778745 81.768197,50.485921 c -0.526975,-0.292824 -1.002492,-0.581173 -1.056704,-0.640778 -0.05418,-0.0596 1.906634,-0.08456 4.357452,-0.05545 l 4.456026,0.05292 -0.05468,21.644641 -0.05468,21.64465 10.706459,-0.0018 c 9.90939,-0.0018 10.8414,-0.03722 12.51892,-0.479387 0.99685,-0.262744 2.33043,-0.761924 2.96353,-1.109306 0.6331,-0.347382 1.53361,-1.027623 2.00115,-1.511644 0.62422,-0.646237 0.78184,-0.734305 0.59324,-0.331465 -0.14125,0.301729 -0.82014,1.176166 -1.50863,1.94319 -0.68849,0.767032 -1.72835,1.637675 -2.31079,1.934761 -0.58244,0.297095 -1.55907,0.64444 -2.17029,0.771876 -0.63526,0.132443 -6.95378,0.231703 -14.750217,0.231703 H 83.820071 Z"
         id="path2"
         sodipodi:nodetypes="cscssssscsssssssscccssssssscsssssssssccccsscsccccsssssssscc" /></g></g></svg>
