<?xml version="1.0" encoding="UTF-8" standalone="no"?>
<!-- Created with Inkscape (http://www.inkscape.org/) -->

<svg
   width="89.847168mm"
   height="80.507553mm"
   viewBox="0 0 89.847168 80.507553"
   version="1.1"
   id="svg1"
   xml:space="preserve"
   inkscape:version="1.4 (86a8ad7, 2024-10-11)"
   sodipodi:docname="favicon.svg"
   xmlns:inkscape="http://www.inkscape.org/namespaces/inkscape"
   xmlns:sodipodi="http://sodipodi.sourceforge.net/DTD/sodipodi-0.dtd"
   xmlns="http://www.w3.org/2000/svg"
   xmlns:svg="http://www.w3.org/2000/svg"><sodipodi:namedview
     id="namedview1"
     pagecolor="#ffffff"
     bordercolor="#000000"
     borderopacity="0.25"
     inkscape:showpageshadow="2"
     inkscape:pageopacity="0.0"
     inkscape:pagecheckerboard="0"
     inkscape:deskcolor="#d1d1d1"
     inkscape:document-units="mm"
     inkscape:zoom="2.0031716"
     inkscape:cx="153.25696"
     inkscape:cy="157.50024"
     inkscape:window-width="1920"
     inkscape:window-height="1009"
     inkscape:window-x="-8"
     inkscape:window-y="-8"
     inkscape:window-maximized="1"
     inkscape:current-layer="layer1" /><defs
     id="defs1" /><g
     inkscape:label="Capa 1"
     inkscape:groupmode="layer"
     id="layer1"
     transform="translate(0.18679245,-0.3735849)"><rect
       style="fill:#000000;stroke-width:0.264583"
       id="rect1"
       width="89.847168"
       height="80.507553"
       x="-0.18679245"
       y="0.3735849" /><path
       style="fill:#c8ab37;stroke-width:0.869939"
       d="m 32.749082,70.586306 c 1.44884,-0.17352 4.16541,-0.43323 6.03682,-0.57714 1.87143,-0.14391 6.21794,-0.32124 9.65893,-0.39406 4.15691,-0.0879 6.84566,-0.25405 8.01251,-0.49492 0.99255,-0.20488 2.55151,-0.77441 3.58527,-1.30979 1.52507,-0.78982 2.16505,-1.31865 3.85018,-3.181473 1.6936,-1.87219 2.1882,-2.60566 3.05266,-4.52691 0.56738,-1.26099 1.23724,-3.161533 1.48858,-4.223425 0.25134,-1.061884 0.512409,-3.017214 0.580149,-4.345161 0.0677,-1.327948 0.0163,-3.287355 -0.11428,-4.354237 -0.1306,-1.066892 -0.499159,-2.850547 -0.819009,-3.963684 -0.31985,-1.113146 -0.99152,-2.835633 -1.4926,-3.827765 -0.55304,-1.094994 -1.55806,-2.524417 -2.55747,-3.637418 -1.038,-1.15598 -2.25482,-2.208779 -3.29281,-2.848968 -0.90553,-0.558489 -2.23912,-1.199143 -2.96354,-1.423668 -1.09893,-0.340613 -2.8445,-0.433616 -10.53701,-0.561417 -9.14511,-0.151936 -9.23056,-0.158001 -10.537,-0.748379 l -1.31713,-0.595202 1.31713,-0.07607 c 0.72442,-0.04187 6.15757,-0.03165 12.07365,0.02271 8.94869,0.08219 11.00996,0.164862 12.26441,0.491857 0.82934,0.216187 2.0536,0.617541 2.72059,0.891896 0.66699,0.274346 1.91474,0.949489 2.77277,1.500306 0.85805,0.550818 2.264219,1.785589 3.124829,2.743926 0.86062,0.958346 2.0651,2.653113 2.67663,3.766149 0.61153,1.113037 1.36421,2.87356 1.67262,3.912266 0.30842,1.038715 0.65904,2.554309 0.77917,3.367998 0.12013,0.813679 0.21917,2.421838 0.22009,3.573677 8.3e-4,1.151839 -0.10343,2.943777 -0.23187,3.982082 -0.12844,1.038313 -0.51418,2.791384 -0.85721,3.89571 -0.34303,1.104327 -1.08395,2.841967 -1.6465,3.861417 -0.56255,1.01945 -1.53509,2.45805 -2.1612,3.19689 -0.62612,0.738843 -1.582929,1.734123 -2.126239,2.211723 -0.54332,0.47761 -1.67933,1.2508 -2.52449,1.71822 -0.84516,0.46741 -2.17875,1.0708 -2.96353,1.34086 -0.78479,0.27005 -2.26397,0.60283 -3.28706,0.73952 -1.11648,0.14915 -7.30386,0.23642 -15.47623,0.21828 -12.49868,-0.0277 -13.39989,-0.0561 -10.98181,-0.34573 z M 19.599792,36.873175 c 0.0162,-8.661033 -0.0229,-18.119472 -0.0867,-21.018748 -0.10632,-4.827893 -0.15481,-5.335527 -0.57624,-6.0334638 -0.25308,-0.419129 -0.89131,-1.001635 -1.41828,-1.294459 -0.52698,-0.292824 -1.0025,-0.581173 -1.05671,-0.640778 -0.0542,-0.0596 1.90664,-0.08456 4.35745,-0.05545 l 4.45603,0.05292 -0.0547,21.6446408 -0.0547,21.64465 10.70646,-0.0018 c 9.90939,-0.0018 10.8414,-0.03722 12.51892,-0.479387 0.99685,-0.262744 2.33043,-0.761924 2.96353,-1.109306 0.6331,-0.347382 1.53361,-1.027623 2.00115,-1.511644 0.62422,-0.646237 0.78184,-0.734305 0.59324,-0.331465 -0.14125,0.301729 -0.82014,1.176166 -1.50863,1.94319 -0.68849,0.767032 -1.72835,1.637675 -2.31079,1.934761 -0.58244,0.297095 -1.55907,0.64444 -2.17029,0.771876 -0.63526,0.132443 -6.95378,0.231703 -14.75022,0.231703 h -13.63891 z"
       id="path2"
       sodipodi:nodetypes="cscssssscsssssssscccssssssscsssssssssccccsscsccccsssssssscc" /></g></svg>
